<?xml version="1.0" encoding="UTF-8" standalone="no"?>
<svg
        width="140"
        height="44"
        viewBox="0 0 146.4122 44"
        fill="none"
        version="1.1"
        id="svg50"
        sodipodi:docname="app-store.svg"
        inkscape:version="1.2.1 (9c6d41e4, 2022-07-14)"
        xmlns:inkscape="http://www.inkscape.org/namespaces/inkscape"
        xmlns:sodipodi="http://sodipodi.sourceforge.net/DTD/sodipodi-0.dtd"
        xmlns="http://www.w3.org/2000/svg"
        xmlns:svg="http://www.w3.org/2000/svg">
    <defs
            id="defs54" />
    <sodipodi:namedview
            id="namedview52"
            pagecolor="#ffffff"
            bordercolor="#999999"
            borderopacity="1"
            inkscape:showpageshadow="0"
            inkscape:pageopacity="0"
            inkscape:pagecheckerboard="0"
            inkscape:deskcolor="#d1d1d1"
            showgrid="false"
            inkscape:zoom="11.153846"
            inkscape:cx="61.68276"
            inkscape:cy="19.858621"
            inkscape:window-width="1920"
            inkscape:window-height="613"
            inkscape:window-x="173"
            inkscape:window-y="419"
            inkscape:window-maximized="0"
            inkscape:current-layer="svg50" />
    <path
            d="M 50.303252,29.985456 H 44.95908 l -1.283487,3.786793 h -2.263489 l 5.061914,-14.00995 h 2.351779 l 5.061915,14.00995 h -2.302214 z m -4.79072,-1.747352 h 4.236139 l -2.088263,-6.145627 h -0.05849 z"
            fill="#FFFFFF"
            id="path2"
            style="stroke-width:1.12861" />
    <path
            d="m 64.819705,28.665579 c 0,3.174182 -1.700214,5.213511 -4.265833,5.213511 -0.649985,0.03396 -1.296357,-0.115641 -1.865165,-0.431649 -0.568808,-0.316121 -1.037018,-0.78579 -1.351004,-1.355416 h -0.04855 v 5.059287 H 55.190957 V 23.55778 h 2.030908 v 1.698951 h 0.03862 c 0.328436,-0.566918 0.804662,-1.034105 1.377761,-1.352144 0.573097,-0.317925 1.221841,-0.474745 1.87702,-0.453648 2.59441,0 4.304446,2.049257 4.304446,5.21464 z m -2.156683,0 c 0,-2.067985 -1.069421,-3.427575 -2.701216,-3.427575 -1.603229,0 -2.681457,1.388246 -2.681457,3.427575 0,2.058056 1.078228,3.436374 2.681457,3.436374 1.631795,0 2.701216,-1.349662 2.701216,-3.436374 z"
            fill="#FFFFFF"
            id="path4"
            style="stroke-width:1.12861" />
    <path
            d="m 76.070874,28.665579 c 0,3.174182 -1.700664,5.213511 -4.266396,5.213511 -0.649873,0.03396 -1.296244,-0.115641 -1.865053,-0.431649 -0.568808,-0.316121 -1.037018,-0.78579 -1.351116,-1.355416 h -0.04855 v 5.059287 H 66.441563 V 23.55778 h 2.030908 v 1.698951 h 0.03861 c 0.328549,-0.566918 0.804663,-1.034105 1.377762,-1.352144 0.57321,-0.317925 1.221841,-0.474745 1.87702,-0.453648 2.594409,0 4.305009,2.049257 4.305009,5.21464 z m -2.157133,0 c 0,-2.067985 -1.069535,-3.427575 -2.701329,-3.427575 -1.603116,0 -2.681458,1.388246 -2.681458,3.427575 0,2.058056 1.078342,3.436374 2.681458,3.436374 1.631794,0 2.701329,-1.349662 2.701329,-3.436374 z"
            fill="#FFFFFF"
            id="path6"
            style="stroke-width:1.12861" />
    <path
            d="m 83.505004,29.868688 c 0.155468,1.389374 1.506133,2.301521 3.351878,2.301521 1.768521,0 3.04083,-0.91226 3.04083,-2.164897 0,-1.087469 -0.767292,-1.738551 -2.584361,-2.184753 l -1.817069,-0.437402 c -2.574538,-0.621411 -3.769734,-1.82452 -3.769734,-3.776865 0,-2.417275 2.108134,-4.077641 5.100528,-4.077641 2.963716,0 4.994737,1.660366 5.063044,4.077641 h -2.118069 c -0.126791,-1.398174 -1.283374,-2.242065 -2.973652,-2.242065 -1.690279,0 -2.846862,0.853819 -2.846862,2.09664 0,0.990444 0.738728,1.573271 2.545861,2.019473 l 1.544745,0.378961 c 2.876555,0.679852 4.070622,1.834448 4.070622,3.883705 0,2.621141 -2.088263,4.262666 -5.411464,4.262666 -3.109249,0 -5.208462,-1.603055 -5.344173,-4.137097 z"
            fill="#FFFFFF"
            id="path8"
            style="stroke-width:1.12861" />
    <path
            d="m 96.643243,21.140618 v 2.417275 h 1.943859 v 1.660366 h -1.943859 v 5.631058 c 0,0.874803 0.389178,1.28242 1.243745,1.28242 0.230661,-0.0041 0.461097,-0.0202 0.690178,-0.04852 v 1.650439 c -0.38421,0.07175 -0.77463,0.104251 -1.165389,0.09691 -2.069521,0 -2.876667,-0.776764 -2.876667,-2.757652 v -5.854665 h -1.486262 v -1.660367 h 1.486262 v -2.417275 z"
            fill="#FFFFFF"
            id="path10"
            style="stroke-width:1.12861" />
    <path
            d="m 99.712862,28.665579 c 0,-3.213783 1.894178,-5.233255 4.847958,-5.233255 2.96372,0 4.84909,2.019472 4.84909,5.233255 0,3.222693 -1.87543,5.233367 -4.84909,5.233367 -2.97252,0 -4.847958,-2.010674 -4.847958,-5.233367 z m 7.559218,0 c 0,-2.20461 -1.01105,-3.505759 -2.71126,-3.505759 -1.70021,0 -2.71126,1.311077 -2.71126,3.505759 0,2.213409 1.01105,3.504743 2.71126,3.504743 1.70021,0 2.71126,-1.291334 2.71126,-3.504743 z"
            fill="#FFFFFF"
            id="path12"
            style="stroke-width:1.12861" />
    <path
            d="m 111.1388,23.557893 h 2.00111 v 1.738551 h 0.0486 c 0.13549,-0.543001 0.45377,-1.022823 0.90154,-1.358913 0.44766,-0.33609 0.9975,-0.507914 1.5575,-0.486592 0.24161,-7.89e-4 0.48323,0.02549 0.71807,0.07829 v 1.961145 c -0.30484,-0.09331 -0.62323,-0.136061 -0.94275,-0.126697 -0.3037,-0.01242 -0.60854,0.04129 -0.88967,0.157383 -0.28261,0.116091 -0.53618,0.291752 -0.74393,0.515022 -0.20774,0.223271 -0.36468,0.488847 -0.45996,0.778343 -0.0953,0.289608 -0.12679,0.596366 -0.0923,0.899286 v 6.05853 h -2.0982 z"
            fill="#FFFFFF"
            id="path14"
            style="stroke-width:1.12861" />
    <path
            d="m 126.04138,30.772148 c -0.28225,1.854304 -2.08983,3.126798 -4.4021,3.126798 -2.97275,0 -4.81872,-1.990929 -4.81872,-5.184856 0,-3.203853 1.85501,-5.281766 4.73065,-5.281766 2.82824,0 4.60647,1.941288 4.60647,5.038302 v 0.718323 h -7.21905 v 0.126696 c -0.0339,0.375916 0.0136,0.754651 0.13774,1.110936 0.12419,0.356285 0.3229,0.682107 0.58372,0.955808 0.25967,0.273588 0.57467,0.488848 0.92467,0.631339 0.35,0.142492 0.72597,0.208942 1.10306,0.195066 0.49565,0.04648 0.99356,-0.06826 1.41921,-0.327177 0.42564,-0.258808 0.75532,-0.647924 0.94161,-1.109469 z m -7.09259,-3.048502 h 5.11001 c 0.0192,-0.338007 -0.0328,-0.67624 -0.15016,-0.993602 -0.11855,-0.317249 -0.30146,-0.606632 -0.53629,-0.850097 -0.23597,-0.243352 -0.51936,-0.435596 -0.8321,-0.564437 -0.31387,-0.12884 -0.65033,-0.191568 -0.98904,-0.184347 -0.34096,-0.002 -0.67968,0.06363 -0.9958,0.193035 -0.31614,0.129403 -0.60404,0.320181 -0.84565,0.561164 -0.24274,0.241096 -0.43468,0.527546 -0.56452,0.843102 -0.13097,0.315444 -0.19758,0.653677 -0.19645,0.995182 z"
            fill="#FFFFFF"
            id="path16"
            style="stroke-width:1.12861" />
    <path
            d="m 45.250144,9.2169415 c 0.439872,-0.031544 0.881212,0.034862 1.292407,0.1944334 0.411082,0.1595835 0.78163,0.408351 1.084776,0.7283071 0.30326,0.319957 0.531663,0.703206 0.668728,1.122105 0.137065,0.4189 0.179403,0.862845 0.123968,1.300134 0,2.15057 -1.163245,3.386847 -3.169879,3.386847 H 42.816736 V 9.2169415 Z m -1.387132,5.7797415 h 1.270165 c 0.314436,0.01884 0.628985,-0.03271 0.92084,-0.150727 0.291856,-0.118009 0.553792,-0.299649 0.766615,-0.531493 0.212823,-0.231958 0.371227,-0.508366 0.463582,-0.809143 0.09247,-0.300778 0.116629,-0.618477 0.07067,-0.929747 0.04256,-0.310029 0.01603,-0.625698 -0.07779,-0.924332 -0.09393,-0.298521 -0.252673,-0.572673 -0.465045,-0.802825 -0.212258,-0.23004 -0.472953,-0.410325 -0.763115,-0.527884 -0.290274,-0.117671 -0.603016,-0.169568 -0.915759,-0.152306 H 43.86301 Z"
            fill="#FFFFFF"
            id="path18"
            style="stroke-width:1.12861" />
    <path
            d="m 49.601219,13.406264 c -0.03195,-0.333834 0.0062,-0.6706 0.112226,-0.988865 0.105903,-0.318264 0.277178,-0.610806 0.502985,-0.859009 0.225694,-0.248203 0.50084,-0.446427 0.807824,-0.58215 0.306872,-0.135722 0.638808,-0.205783 0.974471,-0.205783 0.335661,0 0.667598,0.07006 0.97447,0.205783 0.306983,0.135723 0.58213,0.333947 0.807823,0.58215 0.225808,0.248203 0.397082,0.540745 0.503098,0.859009 0.105904,0.318265 0.144066,0.655031 0.112113,0.988865 0.03263,0.334285 -0.0052,0.671616 -0.110871,0.990331 -0.105564,0.318715 -0.276839,0.611822 -0.502646,0.860476 -0.225807,0.248655 -0.501178,0.447443 -0.808389,0.58339 -0.307211,0.136062 -0.639598,0.206235 -0.975598,0.206235 -0.336002,0 -0.668389,-0.07017 -0.9756,-0.206235 -0.30721,-0.135947 -0.582582,-0.334735 -0.808388,-0.58339 -0.225808,-0.248654 -0.396969,-0.541761 -0.502647,-0.860476 -0.105678,-0.318715 -0.1435,-0.656046 -0.110871,-0.990331 z m 3.763073,0 c 0,-1.10112 -0.495081,-1.745095 -1.363874,-1.745095 -0.872179,0 -1.362745,0.643975 -1.362745,1.745208 0,1.109919 0.490566,1.74893 1.362745,1.74893 0.868793,0 1.363874,-0.64341 1.363874,-1.749043 z"
            fill="#FFFFFF"
            id="path20"
            style="stroke-width:1.12861" />
    <path
            d="m 60.770985,15.948656 h -1.040743 l -1.050793,-3.741665 h -0.07937 l -1.04639,3.741665 h -1.030922 l -1.401358,-5.080271 h 1.017712 l 0.91068,3.876485 h 0.07508 l 1.045147,-3.876485 h 0.962615 l 1.045261,3.876485 h 0.07937 l 0.906276,-3.876485 h 1.003373 z"
            fill="#FFFFFF"
            id="path22"
            style="stroke-width:1.12861" />
    <path
            d="m 63.345523,10.868385 h 0.96589 v 0.807 h 0.07497 c 0.12713,-0.289834 0.341759,-0.532848 0.613631,-0.695083 0.271983,-0.162235 0.587775,-0.235568 0.903453,-0.209958 0.247371,-0.01862 0.495759,0.01862 0.72676,0.108984 0.231,0.09037 0.438743,0.231506 0.607759,0.413033 0.169017,0.181415 0.294904,0.398593 0.368517,0.635288 0.07361,0.236696 0.09304,0.48693 0.05668,0.7322 v 3.288694 h -1.00326 v -3.036994 c 0,-0.816362 -0.355081,-1.2224 -1.097083,-1.2224 -0.168001,-0.0078 -0.335662,0.02076 -0.491468,0.08383 -0.15592,0.06295 -0.296259,0.15885 -0.411647,0.281147 -0.115275,0.122297 -0.202775,0.26806 -0.256403,0.427249 -0.05363,0.159189 -0.07226,0.328192 -0.05442,0.495278 v 2.971896 h -1.003374 z"
            fill="#FFFFFF"
            id="path24"
            style="stroke-width:1.12861" />
    <path
            d="m 69.262005,8.8852516 h 1.00326 v 7.0634044 h -1.00326 z"
            fill="#FFFFFF"
            id="path26"
            style="stroke-width:1.12861" />
    <path
            d="m 71.659284,13.406377 c -0.03195,-0.333947 0.0062,-0.670713 0.112226,-0.988978 0.106017,-0.318264 0.277291,-0.610919 0.503098,-0.859009 0.225807,-0.248203 0.500953,-0.44654 0.807938,-0.582262 0.306871,-0.135723 0.638807,-0.205784 0.974469,-0.205784 0.335663,0 0.667598,0.07006 0.974583,0.205784 0.306985,0.135722 0.58213,0.334059 0.807938,0.582262 0.225693,0.24809 0.397081,0.540745 0.503097,0.859009 0.105903,0.318265 0.144178,0.655031 0.112226,0.988978 0.03252,0.334172 -0.0053,0.671503 -0.110983,0.990218 -0.105679,0.318715 -0.276953,0.611935 -0.50276,0.860589 -0.225807,0.248654 -0.501178,0.44733 -0.808502,0.583277 -0.30721,0.136062 -0.639485,0.206235 -0.975599,0.206235 -0.336001,0 -0.668275,-0.07017 -0.975599,-0.206235 -0.30721,-0.135947 -0.582582,-0.334623 -0.808388,-0.583277 -0.225807,-0.248654 -0.397082,-0.541874 -0.502873,-0.860589 -0.105677,-0.318715 -0.1435,-0.656046 -0.110871,-0.990218 z m 3.763073,0 c 0,-1.101233 -0.495082,-1.745208 -1.363874,-1.745208 -0.872179,0 -1.362745,0.643975 -1.362745,1.745208 0,1.110032 0.490566,1.749043 1.362745,1.749043 0.868792,0 1.363874,-0.64341 1.363874,-1.749043 z"
            fill="#FFFFFF"
            id="path28"
            style="stroke-width:1.12861" />
    <path
            d="m 77.51141,14.511897 c 0,-0.914403 0.681373,-1.44161 1.890908,-1.516522 l 1.377083,-0.07931 v -0.438529 c 0,-0.536571 -0.354968,-0.839491 -1.040857,-0.839491 -0.560001,0 -0.948164,0.205444 -1.059486,0.56455 h -0.971422 c 0.102517,-0.872548 0.924002,-1.432247 2.077312,-1.432247 1.274567,0 1.993423,0.634047 1.993423,1.707188 v 3.471123 h -0.965889 v -0.714036 h -0.07937 c -0.161114,0.256101 -0.387372,0.46493 -0.655631,0.605052 -0.268371,0.140122 -0.569033,0.206573 -0.871388,0.192583 -0.213501,0.02223 -0.429147,-5.63e-4 -0.633276,-0.06679 -0.204016,-0.06623 -0.392001,-0.174419 -0.551646,-0.317701 -0.159646,-0.143168 -0.287565,-0.318263 -0.375292,-0.513893 -0.08784,-0.195743 -0.133677,-0.407505 -0.134468,-0.621974 z m 3.267991,-0.43413 v -0.424654 l -1.241487,0.07931 c -0.700114,0.04682 -1.017711,0.284758 -1.017711,0.732652 0,0.457258 0.396968,0.723287 0.942744,0.723287 0.159984,0.01613 0.321549,0 0.475098,-0.04739 0.153548,-0.0475 0.29592,-0.125456 0.418759,-0.229024 0.122839,-0.103573 0.223548,-0.230829 0.296146,-0.37411 0.07259,-0.143393 0.115612,-0.299762 0.126451,-0.460079 z"
            fill="#FFFFFF"
            id="path30"
            style="stroke-width:1.12861" />
    <path
            d="m 83.097084,13.406377 c 0,-1.605312 0.825776,-2.622268 2.110279,-2.622268 0.31771,-0.01455 0.63305,0.06149 0.909099,0.219321 0.276162,0.157835 0.501516,0.39092 0.649985,0.671955 h 0.07497 V 8.8852516 h 1.00326 v 7.0634044 h -0.961372 v -0.802712 h -0.07937 c -0.159871,0.279228 -0.393243,0.509381 -0.674598,0.665636 -0.281469,0.156255 -0.600309,0.232634 -0.92197,0.220788 -1.293309,0 -2.110279,-1.016957 -2.110279,-2.625991 z m 1.036454,0 c 0,1.077428 0.508292,1.725803 1.358341,1.725803 0.845648,0 1.368278,-0.65774 1.368278,-1.721403 0,-1.058813 -0.528163,-1.725916 -1.368278,-1.725916 -0.84463,0 -1.358454,0.652775 -1.358454,1.721516 z"
            fill="#FFFFFF"
            id="path32"
            style="stroke-width:1.12861" />
    <path
            d="m 91.996249,13.406264 c -0.03195,-0.333834 0.0062,-0.6706 0.112226,-0.988865 0.105903,-0.318264 0.277291,-0.610806 0.502985,-0.859009 0.225694,-0.248203 0.50084,-0.446427 0.807825,-0.58215 0.306871,-0.135722 0.638807,-0.205783 0.974469,-0.205783 0.335663,0 0.667598,0.07006 0.97447,0.205783 0.306985,0.135723 0.582131,0.333947 0.807825,0.58215 0.225807,0.248203 0.397081,0.540745 0.503097,0.859009 0.105903,0.318265 0.144178,0.655031 0.112113,0.988865 0.03263,0.334285 -0.0052,0.671616 -0.11087,0.990331 -0.105566,0.318715 -0.27684,0.611822 -0.502647,0.860476 -0.225807,0.248655 -0.501178,0.447443 -0.808389,0.58339 -0.30721,0.136062 -0.639598,0.206235 -0.975599,0.206235 -0.336001,0 -0.668388,-0.07017 -0.975599,-0.206235 -0.30721,-0.135947 -0.582582,-0.334735 -0.808388,-0.58339 -0.225808,-0.248654 -0.396969,-0.541761 -0.502647,-0.860476 -0.105677,-0.318715 -0.1435,-0.656046 -0.110871,-0.990331 z m 3.763072,0 c 0,-1.10112 -0.495081,-1.745095 -1.363873,-1.745095 -0.872179,0 -1.362745,0.643975 -1.362745,1.745208 0,1.109919 0.490566,1.74893 1.362745,1.74893 0.868792,0 1.363873,-0.64341 1.363873,-1.749043 z"
            fill="#FFFFFF"
            id="path34"
            style="stroke-width:1.12861" />
    <path
            d="m 98.137182,10.868385 h 0.965889 v 0.807 h 0.07497 c 0.127242,-0.289834 0.341759,-0.532848 0.613744,-0.695083 0.271875,-0.162235 0.587775,-0.235568 0.903455,-0.209958 0.24737,-0.01862 0.49576,0.01862 0.72676,0.108984 0.231,0.09037 0.43863,0.231506 0.60764,0.413033 0.16902,0.181415 0.29501,0.398593 0.36862,0.635288 0.0736,0.236696 0.093,0.48693 0.0567,0.7322 v 3.288694 h -1.00336 v -3.036994 c 0,-0.816362 -0.35497,-1.2224 -1.09708,-1.2224 -0.16789,-0.0078 -0.33555,0.02076 -0.491474,0.08383 -0.15592,0.06295 -0.296258,0.15885 -0.411533,0.281147 -0.115387,0.122297 -0.202774,0.26806 -0.256516,0.427249 -0.05363,0.159189 -0.07214,0.328192 -0.05442,0.495278 v 2.971896 h -1.003374 z"
            fill="#FFFFFF"
            id="path36"
            style="stroke-width:1.12861" />
    <path
            d="m 108.12428,9.6035632 v 1.2879498 h 1.10149 v 0.844568 h -1.10149 v 2.612227 c 0,0.532171 0.21948,0.765143 0.71897,0.765143 0.12781,-3.38e-4 0.25562,-0.0081 0.38252,-0.02312 v 0.835092 c -0.18008,0.03226 -0.36265,0.04942 -0.54578,0.05122 -1.11571,0 -1.5601,-0.392161 -1.5601,-1.371661 v -2.869005 h -0.80704 V 10.89152 h 0.80704 V 9.6035632 Z"
            fill="#FFFFFF"
            id="path38"
            style="stroke-width:1.12861" />
    <path
            d="m 110.59743,8.8852516 h 0.99445 v 2.7996094 h 0.0794 c 0.13345,-0.292654 0.35384,-0.537022 0.63124,-0.699821 0.2774,-0.162798 0.59828,-0.236244 0.91892,-0.210296 0.24613,-0.01331 0.49215,0.02775 0.72056,0.120266 0.22839,0.09251 0.43309,0.234327 0.60019,0.415177 0.16822,0.180962 0.29242,0.396448 0.36693,0.631339 0.0745,0.234777 0.096,0.483094 0.0632,0.727123 v 3.280007 h -1.00427 v -3.032594 c 0,-0.811512 -0.37824,-1.2224 -1.08716,-1.2224 -0.17251,-0.01421 -0.34593,0.0095 -0.50829,0.06938 -0.16224,0.05979 -0.30958,0.15445 -0.43151,0.277085 -0.12194,0.122635 -0.21553,0.270542 -0.27436,0.433115 -0.0587,0.162573 -0.0813,0.33609 -0.066,0.508365 v 2.966932 h -1.00337 z"
            fill="#FFFFFF"
            id="path40"
            style="stroke-width:1.12861" />
    <path
            d="m 120.82186,14.576881 c -0.13549,0.464366 -0.43129,0.866004 -0.83435,1.134628 -0.40195,0.268736 -0.8863,0.38731 -1.36839,0.335187 -0.3342,0.0088 -0.66727,-0.05528 -0.9755,-0.187845 -0.3071,-0.132676 -0.58257,-0.330561 -0.80612,-0.580006 -0.22355,-0.249557 -0.38952,-0.54458 -0.48774,-0.864763 -0.0983,-0.320295 -0.1242,-0.657964 -0.0791,-0.989541 -0.044,-0.332705 -0.0169,-0.671165 0.0802,-0.992249 0.0983,-0.321198 0.26419,-0.617689 0.48548,-0.869277 0.22242,-0.2517 0.49677,-0.452745 0.80386,-0.589482 0.30597,-0.136738 0.63904,-0.206009 0.97437,-0.203189 1.41468,0 2.26823,0.965737 2.26823,2.561007 v 0.349854 h -3.59034 v 0.05619 c -0.0158,0.18649 0.008,0.37411 0.0689,0.550898 0.0621,0.176902 0.15919,0.339023 0.28677,0.476099 0.12758,0.136964 0.28226,0.245835 0.45388,0.319619 0.1716,0.07379 0.35789,0.110904 0.54532,0.108758 0.23935,0.02877 0.48323,-0.01432 0.69774,-0.124101 0.21564,-0.109662 0.39404,-0.280808 0.51145,-0.491781 z m -3.52937,-1.637127 h 2.56856 c 0.0124,-0.170583 -0.0113,-0.341843 -0.0678,-0.502836 -0.0576,-0.160994 -0.14904,-0.308224 -0.26646,-0.4321 -0.11741,-0.123989 -0.2608,-0.221917 -0.41886,-0.287577 -0.15807,-0.06555 -0.32742,-0.09747 -0.49904,-0.09353 -0.17274,-0.0023 -0.34548,0.03035 -0.50581,0.09567 -0.16145,0.06544 -0.30709,0.162235 -0.43016,0.284983 -0.12193,0.122635 -0.21903,0.26851 -0.28451,0.429165 -0.0655,0.160656 -0.0983,0.332819 -0.096,0.506222 z"
            fill="#FFFFFF"
            id="path42"
            style="stroke-width:1.12861" />
    <path
            d="m 28.673928,21.80569 c 0.01265,-0.979163 0.273002,-1.939371 0.75668,-2.791047 0.483791,-0.851676 1.175212,-1.56729 2.010133,-2.080169 -0.530307,-0.756907 -1.230083,-1.379784 -2.04344,-1.819218 -0.81347,-0.439432 -1.718278,-0.683236 -2.642505,-0.712117 -1.971521,-0.206798 -3.882864,1.178853 -4.887592,1.178853 -1.024035,0 -2.570925,-1.15832 -4.23659,-1.124135 -1.077439,0.03475 -2.127554,0.347822 -3.047829,0.908762 -0.92039,0.560827 -1.679553,1.350339 -2.203764,2.291594 -2.270635,3.928381 -0.576936,9.701816 1.598149,12.877239 1.088277,1.554881 2.360134,3.29174 4.024332,3.230253 1.62852,-0.06758 2.236731,-1.037716 4.202493,-1.037716 1.947472,0 2.518086,1.037716 4.216041,0.998455 1.74752,-0.02832 2.848555,-1.561763 3.898557,-3.131423 0.78197,-1.107889 1.383632,-2.332435 1.782747,-3.628169 -1.015228,-0.429053 -1.881537,-1.147263 -2.491103,-2.065051 -0.609453,-0.917788 -0.935066,-1.994539 -0.936309,-3.096111 z"
            fill="#FFFFFF"
            id="path44"
            style="stroke-width:1.12861" />
    <path
            d="m 25.46668,12.314733 c 0.952905,-1.142976 1.422245,-2.6120012 1.308551,-4.0952191 -1.455665,0.1527804 -2.800232,0.8479753 -3.765895,1.9470201 -0.472163,0.537021 -0.833793,1.161591 -1.064228,1.838284 -0.230324,0.676693 -0.32505,1.392082 -0.278534,2.105328 0.728002,0.0076 1.448326,-0.150163 2.106554,-0.461207 0.65834,-0.310931 1.237308,-0.767174 1.693552,-1.334206 z"
            fill="#FFFFFF"
            id="path46"
            style="stroke-width:1.12861" />
    <path
            d="M 138.40693,-0.55647043 H 8.004838 c -4.1717793,0 -7.553677,3.56490373 -7.553677,7.96243423 V 36.594036 c 0,4.397498 3.3818977,7.962435 7.553677,7.962435 H 138.40693 c 4.1724,0 7.55411,-3.564937 7.55411,-7.962435 V 7.4059638 c 0,-4.3975305 -3.38171,-7.96243423 -7.55411,-7.96243423 z"
            stroke="#FFFFFF"
            stroke-width="0.902322"
            stroke-miterlimit="10"
            id="path48" />
</svg>
