<?xml version="1.0" encoding="UTF-8" standalone="no"?>
<svg
        width="140"
        height="44"
        viewBox="0 0 140 44"
        fill="none"
        version="1.1"
        id="svg2944"
        xmlns="http://www.w3.org/2000/svg"
        xmlns:svg="http://www.w3.org/2000/svg">
    <defs
            id="defs2948" />
    <path
            d="M 7.2311956,20.753454 C 7.2475666,13.412164 13.148241,7.5049263 20.414371,7.5215108 27.707935,7.5380953 33.575756,13.483918 33.54832,20.803096 33.520885,28.133442 27.592774,34.040681 20.337596,33.996569 13.066047,33.957871 7.2311956,28.039688 7.2256633,20.753454 Z m 1.3051643,0.656385 c 0.06571,1.169377 0.2906135,2.294527 0.6799046,3.386622 0.3894041,1.092094 0.9268245,2.106908 1.6013105,3.017024 0.553904,-0.319843 1.085792,-0.6398 1.639696,-0.926588 0.548373,-0.286788 1.118761,-0.529576 1.689036,-0.799779 -0.520936,-1.505804 -0.822614,-3.072193 -0.893856,-4.682807 H 8.5417792 Z m 21.4254671,6.431287 c 1.387472,-1.925042 2.155215,-4.059591 2.29228,-6.431287 h -4.53522 c -0.07124,1.638142 -0.37834,3.226643 -0.921293,4.771033 1.113229,0.446765 2.155215,0.99834 3.158814,1.660254 z M 13.246918,20.102597 c 0.0604,-1.500163 0.329114,-2.950798 0.773277,-4.346264 -0.58676,-0.28126 -1.17352,-0.54052 -1.732956,-0.838364 -0.559324,-0.297844 -1.096745,-0.6398 -1.656069,-0.965285 -1.2613567,1.842233 -1.9632776,3.894085 -2.0948101,6.149913 z m 13.660418,-4.428961 c 0.47713,1.450522 0.75126,2.917742 0.817083,4.423546 h 4.535221 c -0.137179,-2.26147 -0.839099,-4.313322 -2.111296,-6.166498 -1.025503,0.700498 -2.094924,1.274073 -3.241008,1.742952 z M 25.59664,25.745161 c 0.493615,-1.41205 0.778695,-2.85163 0.844518,-4.335322 h -5.390577 v 3.5466 c 1.54644,0.06611 3.059911,0.319845 4.546059,0.788722 z m -5.845803,-4.335322 h -5.215125 c 0.07124,1.472636 0.350904,2.895743 0.833566,4.280154 1.436697,-0.441238 2.889991,-0.678385 4.381559,-0.739082 z m 1.299744,-4.478715 v 3.166058 h 5.379625 c 0.06582,-0.706025 -0.466065,-3.541071 -0.745839,-3.982309 -1.50252,0.485351 -3.04354,0.750139 -4.633786,0.816251 z m -6.514869,3.166058 h 5.215125 v -3.166058 c -1.535487,-0.06611 -3.032588,-0.319845 -4.507785,-0.777667 -0.411194,1.28513 -0.64705,2.592371 -0.70734,3.943725 z m 6.514869,-4.46766 c 0.943196,0.02753 3.718025,-0.468877 4.189623,-0.750137 -0.976164,-2.311112 -2.407441,-4.296738 -4.1623,-6.0616888 l -0.02732,0.011056 z M 19.750837,8.8838086 c -1.727424,1.7870634 -3.120314,3.7617464 -4.063509,6.0561604 1.327067,0.408182 2.676151,0.639913 4.063509,0.700497 V 8.8893367 Z m 1.305164,17.3688164 v 6.442229 c 0.04934,-0.02764 0.08231,-0.03858 0.109742,-0.0607 1.645117,-1.665669 2.9942,-3.530015 3.95388,-5.681148 -0.663646,-0.303259 -3.197201,-0.739082 -4.063622,-0.700384 z m -1.310584,6.326363 v -6.331891 c -1.3326,0.05517 -2.626812,0.270203 -3.904541,0.650857 0.948728,2.145491 2.281215,4.004309 3.904541,5.681034 z M 11.437301,12.91023 c 0.95968,0.645328 1.963166,1.180432 3.032588,1.610613 0.81155,-1.996682 1.946794,-3.778218 3.350637,-5.4274155 -2.550038,0.595688 -4.655801,1.8698735 -6.383225,3.8168025 z m 15.014809,1.555445 c 1.025503,-0.419238 1.979763,-0.932117 2.895523,-1.555445 -0.822615,-0.948701 -1.760278,-1.742952 -2.818748,-2.382752 -1.02539,-0.6176872 -2.99962,-1.4064096 -3.389024,-1.3678253 1.370987,1.5940293 2.495166,3.3479233 3.317781,5.3060223 z m -8.631584,17.947807 c -1.305164,-1.544276 -2.39649,-3.221115 -3.20804,-5.090876 -1.041986,0.408182 -2.023569,0.910117 -2.966765,1.522277 1.705407,1.82576 3.75088,3.022552 6.169273,3.568599 z m 8.505471,-5.030179 c -0.800599,1.831176 -1.87544,3.474847 -3.180604,5.002651 2.363521,-0.59016 4.343171,-1.770479 5.9884,-3.535543 -0.899389,-0.584632 -1.826101,-1.069982 -2.807796,-1.461579 z"
            fill="#FFFFFF"
            id="path2902"
            style="stroke-width:1.12861" />
    <path
            d="m 49.162532,28.513982 h 0.04934 l 1.513584,-7.804527 h 2.363521 l -2.670619,11.500049 h -2.127779 l -2.105762,-7.573022 h -0.04934 l -2.094923,7.573022 H 41.912887 L 39.242156,20.709455 h 2.363634 l 1.524423,7.793584 h 0.04945 l 2.056423,-7.793584 h 1.853537 z"
            fill="#FFFFFF"
            id="path2922"
            style="stroke-width:1.12861" />
    <path
            d="m 57.574294,32.3802 c -1.266777,0 -2.253893,-0.391597 -2.966765,-1.174791 -0.712986,-0.783194 -1.069422,-1.787063 -1.069422,-3.022553 v -0.314428 c 0,-1.2796 0.345485,-2.327582 1.036455,-3.143833 0.690968,-0.816364 1.639696,-1.219017 2.851602,-1.219017 1.140665,0 2.01815,0.353013 2.626813,1.053511 0.608776,0.700497 0.915873,1.649197 0.915873,2.840573 v 1.191376 h -5.067108 l -0.02202,0.04964 c 0.03839,0.584631 0.213951,1.058925 0.532001,1.422995 0.318049,0.364069 0.784115,0.546047 1.409374,0.546047 0.515404,0 0.948615,-0.05517 1.305164,-0.159978 0.356437,-0.10481 0.729357,-0.264675 1.113229,-0.479823 l 0.619618,1.422993 c -0.339953,0.281373 -0.800599,0.512992 -1.381939,0.700498 -0.581226,0.187506 -1.211906,0.286787 -1.902875,0.286787 z m -0.14813,-7.093087 c -0.460646,0 -0.817082,0.159979 -1.063776,0.479936 -0.246807,0.319843 -0.400356,0.739082 -0.449694,1.268545 l 0.01637,0.03858 h 2.796844 v -0.170921 c 0,-0.501935 -0.104209,-0.893533 -0.307098,-1.180432 -0.202887,-0.286788 -0.532001,-0.430182 -0.987114,-0.430182 z"
            fill="#FFFFFF"
            id="path2924"
            style="stroke-width:1.12861" />
    <path
            d="m 69.963419,28.177328 c 0,1.274073 -0.285082,2.294527 -0.849937,3.055722 -0.564856,0.761081 -1.381939,1.14715 -2.451361,1.14715 -0.499033,0 -0.932244,-0.104696 -1.299632,-0.314315 -0.367387,-0.20962 -0.680017,-0.51852 -0.937776,-0.926701 l -0.186404,1.075623 H 62.296933 V 19.892866 h 2.286861 v 4.682807 c 0.246694,-0.341957 0.54284,-0.606744 0.882905,-0.788723 0.339952,-0.182091 0.734776,-0.275843 1.179051,-0.275843 1.080261,0 1.902876,0.408181 2.467732,1.22996 0.564855,0.816362 0.849937,1.908458 0.849937,3.276283 v 0.165506 z m -2.286747,-0.165506 c 0,-0.832834 -0.120694,-1.489219 -0.367388,-1.980098 -0.241275,-0.48535 -0.658115,-0.728026 -1.244874,-0.728026 -0.356436,0 -0.658115,0.07717 -0.904808,0.226091 -0.246808,0.148922 -0.438743,0.364069 -0.58134,0.645329 v 3.618353 c 0.142597,0.259147 0.334532,0.457709 0.586759,0.59016 0.246807,0.137865 0.553904,0.204091 0.915873,0.204091 0.592178,0 1.003486,-0.20962 1.239342,-0.628858 0.235742,-0.419125 0.350904,-1.009284 0.350904,-1.781536 v -0.165506 z"
            fill="#FFFFFF"
            id="path2926"
            style="stroke-width:1.12861" />
    <path
            d="m 75.556545,32.214807 v -11.50005 h 3.74546 c 1.343551,0 2.396489,0.264788 3.147748,0.794251 0.751373,0.529463 1.129713,1.31277 1.129713,2.355224 0,0.529463 -0.137064,0.998341 -0.405775,1.411939 -0.274242,0.413709 -0.669066,0.728137 -1.195535,0.937643 0.712873,0.132451 1.250293,0.441239 1.612262,0.93223 0.361968,0.490879 0.542952,1.058925 0.542952,1.71531 0,1.103151 -0.361967,1.935986 -1.085792,2.498618 -0.723937,0.568047 -1.743907,0.84942 -3.071088,0.84942 h -4.419945 z m 2.292279,-6.679377 h 1.529955 c 0.614195,0 1.085793,-0.126809 1.414907,-0.380541 0.329,-0.253732 0.493501,-0.623329 0.493501,-1.103151 0,-0.529463 -0.164501,-0.926588 -0.499033,-1.174791 -0.334534,-0.253732 -0.828035,-0.380654 -1.486149,-0.380654 h -1.453181 z m 0,1.594029 v 3.314869 h 2.127666 c 0.608776,0 1.069422,-0.132338 1.387471,-0.397126 0.31805,-0.264788 0.47713,-0.661913 0.47713,-1.180319 0,-0.557104 -0.15908,-0.987285 -0.471598,-1.28513 -0.31263,-0.297843 -0.78976,-0.452294 -1.420325,-0.452294 h -2.105876 z"
            fill="#FFFFFF"
            id="path2928"
            style="stroke-width:1.12861" />
    <path
            d="m 90.100094,25.651409 -0.838986,-0.02211 c -0.340065,0 -0.619727,0.07176 -0.839099,0.215147 -0.219371,0.143394 -0.389291,0.341957 -0.504452,0.601217 v 5.774788 h -2.28686 v -8.543722 h 2.127779 l 0.10421,1.263129 c 0.197468,-0.446767 0.455114,-0.794251 0.773276,-1.047982 0.318048,-0.248204 0.679904,-0.375013 1.096744,-0.375013 0.115161,0 0.219372,0.01094 0.318049,0.02753 0.09868,0.01659 0.197468,0.03858 0.296146,0.06622 l -0.241275,2.046211 z"
            fill="#FFFFFF"
            id="path2930"
            style="stroke-width:1.12861" />
    <path
            d="m 90.779773,27.862674 c 0,-1.274072 0.350904,-2.316526 1.058357,-3.132777 0.707454,-0.816362 1.683617,-1.219016 2.93933,-1.219016 1.255825,0 2.24294,0.402654 2.950393,1.219016 0.707454,0.816251 1.069309,1.858705 1.069309,3.132777 v 0.165507 c 0,1.285129 -0.356436,2.333111 -1.06389,3.138418 -0.707339,0.810723 -1.689035,1.213376 -2.939328,1.213376 -1.250294,0 -2.237409,-0.402653 -2.950281,-1.213376 -0.707454,-0.810835 -1.06389,-1.853289 -1.06389,-3.138418 z m 2.286747,0.165507 c 0,0.777666 0.137065,1.406523 0.405776,1.875288 0.274241,0.468879 0.712984,0.706027 1.321648,0.706027 0.608775,0 1.025502,-0.237148 1.299745,-0.711555 0.274129,-0.474293 0.411194,-1.097509 0.411194,-1.86976 v -0.165507 c 0,-0.755553 -0.137065,-1.378882 -0.416727,-1.853175 -0.279662,-0.474407 -0.712873,-0.717082 -1.310696,-0.717082 -0.597712,0 -1.02539,0.242675 -1.299632,0.72261 -0.274243,0.479821 -0.411308,1.097622 -0.411308,1.853175 v 0.165507 z"
            fill="#FFFFFF"
            id="path2932"
            style="stroke-width:1.12861" />
    <path
            d="m 107.60477,29.037804 h 0.0485 l 1.03193,-5.372248 h 2.23097 l -2.15984,8.543723 h -1.91372 l -1.57985,-4.931011 h -0.0493 l -1.57941,4.931011 h -1.90841 L 99.565009,23.665556 H 101.797 l 1.04188,5.344608 h 0.0495 l 1.58482,-5.344608 h 1.52995 z"
            fill="#FFFFFF"
            id="path2934"
            style="stroke-width:1.12861" />
    <path
            d="m 116.64156,29.842885 c 0,-0.253731 -0.11968,-0.468878 -0.36693,-0.650856 -0.24162,-0.182091 -0.69663,-0.341957 -1.35485,-0.479936 -0.99242,-0.198562 -1.74887,-0.501934 -2.26484,-0.910003 -0.51484,-0.402654 -0.77339,-0.954228 -0.77339,-1.649198 0,-0.733553 0.3071,-1.356882 0.92694,-1.86976 0.61984,-0.512991 1.43725,-0.772251 2.46806,-0.772251 1.03082,0 1.93066,0.25926 2.57759,0.772251 0.64694,0.518406 0.95403,1.158206 0.93258,1.924929 l -0.0169,0.04964 h -2.21516 c 0,-0.341957 -0.10952,-0.62333 -0.32968,-0.838363 -0.21903,-0.215148 -0.53743,-0.325485 -0.9484,-0.325485 -0.36693,0 -0.65822,0.09375 -0.87161,0.275843 -0.21452,0.181979 -0.32403,0.408069 -0.32403,0.678386 0,0.270316 0.10951,0.479822 0.33419,0.645328 0.22581,0.165507 0.67516,0.314428 1.35484,0.446766 1.04211,0.209619 1.81549,0.518519 2.33033,0.926588 0.51597,0.408182 0.76774,0.970813 0.76774,1.687783 0,0.766723 -0.32855,1.395466 -0.98113,1.886345 -0.65258,0.490878 -1.51854,0.733667 -2.59339,0.733667 -1.13016,0 -2.02436,-0.286901 -2.68258,-0.866004 -0.6571,-0.579104 -0.96984,-1.235489 -0.9371,-1.969042 l 0.0158,-0.04964 h 2.09548 c 0.0158,0.45771 0.16484,0.788723 0.44935,0.992813 0.28565,0.204091 0.65259,0.308788 1.10759,0.308788 0.42225,0 0.7463,-0.08823 0.97097,-0.259147 0.22468,-0.171035 0.3342,-0.402654 0.3342,-0.700498 z"
            fill="#FFFFFF"
            id="path2936"
            style="stroke-width:1.12861" />
    <path
            d="m 124.02318,32.3802 c -1.26677,0 -2.25354,-0.391597 -2.96709,-1.174904 -0.71242,-0.783194 -1.06921,-1.787063 -1.06921,-3.022553 v -0.314315 c 0,-1.279713 0.3455,-2.327695 1.03647,-3.143946 0.69096,-0.816363 1.63935,-1.219016 2.85193,-1.219016 1.14033,0 2.01759,0.353012 2.62614,1.05351 0.60855,0.700497 0.91564,1.649197 0.91564,2.840573 v 1.191376 h -5.0671 l -0.0215,0.04964 c 0.0384,0.584632 0.21338,1.059038 0.53177,1.422995 0.31839,0.364069 0.78468,0.546047 1.40903,0.546047 0.51598,0 0.94953,-0.05506 1.30517,-0.159865 0.35678,-0.10481 0.72936,-0.264788 1.11323,-0.479935 l 0.61984,1.423107 c -0.33984,0.28126 -0.80049,0.512879 -1.38194,0.700498 -0.58145,0.187506 -1.21145,0.286787 -1.90243,0.286787 z m -0.1479,-7.093087 c -0.46064,0 -0.81742,0.159866 -1.06468,0.479823 -0.24613,0.319956 -0.39967,0.739082 -0.44935,1.268545 l 0.0169,0.03869 h 2.79663 v -0.171034 c 0,-0.501934 -0.10387,-0.893531 -0.3071,-1.180319 -0.20323,-0.286788 -0.53178,-0.430295 -0.98678,-0.430295 z"
            fill="#FFFFFF"
            id="path2938"
            style="stroke-width:1.12861" />
    <path
            d="m 133.21917,25.651409 -0.83887,-0.02211 c -0.33984,0 -0.61984,0.07176 -0.83887,0.215147 -0.21903,0.143394 -0.38952,0.341957 -0.50468,0.601217 v 5.774788 h -2.2863 v -8.543722 h 2.12711 l 0.105,1.263129 c 0.19645,-0.446767 0.455,-0.794251 0.77226,-1.047982 0.31838,-0.248204 0.6808,-0.375013 1.09742,-0.375013 0.11516,0 0.21903,0.01094 0.31838,0.02753 0.0982,0.01659 0.19646,0.03858 0.29582,0.06622 l -0.24162,2.046211 z"
            fill="#FFFFFF"
            id="path2940"
            style="stroke-width:1.12861" />
    <path
            d="M 132.34532,0.43140301 H 7.6542628 c -3.989074,0 -7.22285979,3.40877669 -7.22285979,7.61371479 V 35.954883 c 0,4.204905 3.23378579,7.613714 7.22285979,7.613714 H 132.34532 c 3.98969,0 7.22328,-3.408809 7.22328,-7.613714 V 8.0451178 c 0,-4.2049381 -3.23359,-7.61371479 -7.22328,-7.61371479 z"
            stroke="#FFFFFF"
            stroke-width="0.862806"
            stroke-miterlimit="10"
            id="path2942" />
    <g
            aria-label="Play directly in your"
            id="text917"
            fill="#FFFFFF"
            style="font-family:'Arial Unicode MS';-inkscape-font-specification:'Arial Unicode MS'">
        <path
                d="m 41.000001,9.4999991 h 2.520181 q 0.597005,0 1.025391,0.059245 0.432942,0.059245 0.802083,0.3098957 0.36914,0.2460934 0.555989,0.6744794 0.191406,0.423828 0.191406,0.888671 0,0.92513 -0.597005,1.485677 -0.592447,0.555989 -1.904947,0.555989 h -1.708984 v 2.70703 h -0.884114 z m 0.884114,3.1809889 h 1.718099 q 1.576822,0 1.576822,-1.221354 0,-0.401042 -0.205078,-0.70638 -0.205078,-0.309896 -0.505859,-0.382812 -0.296224,-0.07747 -0.884114,-0.07747 h -1.69987 z"
                id="path6249" />
        <path
                d="M 47.949869,16.180986 H 47.129556 V 9.4999991 h 0.820313 z"
                id="path6251" />
        <path
                d="m 53.39583,16.180986 h -0.861328 q -0.118489,-0.227864 -0.168619,-0.597005 -0.82487,0.710938 -1.781901,0.710938 -0.765625,0 -1.207682,-0.382813 -0.442057,-0.382812 -0.442057,-1.011718 0,-0.601562 0.423828,-0.988932 0.428385,-0.391927 1.481119,-0.519531 l 0.765625,-0.113932 q 0.428385,-0.06836 0.70638,-0.16862 0,-0.369141 -0.02279,-0.519531 -0.02279,-0.154948 -0.136719,-0.319011 -0.109375,-0.164062 -0.355469,-0.264322 -0.246093,-0.100261 -0.660807,-0.100261 -0.528645,0 -0.838541,0.195964 -0.305339,0.195963 -0.419271,0.729166 L 49.075519,12.72656 q 0.132161,-0.742838 0.679036,-1.116536 0.546875,-0.373697 1.503906,-0.373697 0.870442,0 1.276041,0.259765 0.410156,0.255208 0.501302,0.619792 0.0957,0.364583 0.0957,0.938801 v 1.102865 q 0,1.007161 0.03646,1.353515 0.04102,0.341797 0.227864,0.669921 z m -1.084635,-2.128254 v -0.296224 q -0.642578,0.214193 -1.572265,0.341797 -0.929687,0.123047 -0.929687,0.783854 0,0.332682 0.250651,0.551432 0.250651,0.214192 0.720052,0.214192 0.606119,0 1.066405,-0.360025 0.464844,-0.364584 0.464844,-1.235026 z"
                id="path6253" />
        <path
                d="m 58.363276,11.345702 -1.85026,4.917316 q -0.0046,0.0091 -0.0091,0.0319 -0.264323,0.820312 -0.619792,1.330728 -0.350911,0.514974 -1.002604,0.514974 -0.21875,0 -0.533203,-0.09115 l -0.08203,-0.774739 q 0.236979,0.07292 0.464844,0.07292 0.455729,0 0.628906,-0.250651 0.177734,-0.250651 0.396484,-0.906901 l -1.836588,-4.844399 h 0.884114 l 1.139323,3.167316 q 0.10026,0.291667 0.214192,0.751953 h 0.01823 q 0.113932,-0.528646 0.291666,-1.007161 l 1.061849,-2.912108 z"
                id="path6255" />
        <path
                d="M 65.563795,16.180986 H 64.79817 v -0.615234 h -0.01823 q -0.442057,0.729167 -1.335286,0.729167 -0.888672,0 -1.485677,-0.701823 -0.592447,-0.70638 -0.592447,-1.827473 0,-1.171224 0.560546,-1.85026 0.560547,-0.679036 1.48112,-0.679036 0.865885,0 1.317056,0.660807 h 0.01823 V 9.4999991 h 0.820312 z M 63.531243,15.62044 q 0.537761,0 0.911458,-0.442057 0.373698,-0.442058 0.373698,-1.339844 0,-0.884114 -0.341797,-1.408202 -0.341796,-0.524089 -0.979817,-0.524089 -0.638021,0 -0.966145,0.514974 -0.323568,0.510417 -0.323568,1.344401 0,0.601562 0.173177,1.020833 0.177734,0.414713 0.492187,0.624348 0.314453,0.209636 0.660807,0.209636 z"
                id="path6257" />
        <path
                d="m 67.664706,16.180986 h -0.820312 v -4.835284 h 0.820312 z m 0,-5.7513 H 66.844394 V 9.4999991 h 0.820312 z"
                id="path6259" />
        <path
                d="m 71.52473,11.496092 -0.282552,0.75651 q -0.305338,-0.177734 -0.597005,-0.177734 -0.460286,0 -0.697265,0.414713 -0.236979,0.410157 -0.236979,1.152995 v 2.53841 h -0.820312 v -4.835284 h 0.747395 v 0.729166 h 0.01823 q 0.391927,-0.838541 1.025391,-0.838541 0.41927,0 0.843098,0.259765 z"
                id="path6261" />
        <path
                d="m 76.227854,13.970701 h -3.623046 q 0.05013,0.802083 0.455729,1.225911 0.410157,0.423828 1.020833,0.423828 0.469401,0 0.788412,-0.246094 0.31901,-0.250651 0.48763,-0.751953 l 0.843098,0.104818 q -0.205078,0.75651 -0.751953,1.162109 -0.546874,0.405599 -1.367187,0.405599 -1.089192,0 -1.704426,-0.665365 -0.610677,-0.669921 -0.610677,-1.827473 0,-1.14388 0.592448,-1.854817 0.597005,-0.710937 1.677082,-0.710937 0.528646,0 1.016276,0.232421 0.492188,0.232422 0.833984,0.792969 0.341797,0.555989 0.341797,1.708984 z m -0.843099,-0.674479 q -0.05013,-0.738281 -0.460286,-1.061849 -0.405599,-0.328125 -0.888672,-0.328125 -0.578775,0 -0.952473,0.38737 -0.373698,0.38737 -0.432943,1.002604 z"
                id="path6263" />
        <path
                d="m 81.177072,14.508461 q -0.159506,0.92513 -0.729167,1.358072 -0.569661,0.428386 -1.289713,0.428386 -1.052734,0 -1.626952,-0.688151 -0.574219,-0.692708 -0.574219,-1.832031 0,-0.943359 0.328125,-1.508463 0.332682,-0.569661 0.829427,-0.797526 0.496744,-0.232421 1.043619,-0.232421 0.747396,0 1.276041,0.387369 0.533203,0.38737 0.65625,1.139323 l -0.792968,0.123047 q -0.123047,-0.48763 -0.401042,-0.733724 -0.273437,-0.246094 -0.701823,-0.246094 -0.68815,0 -1.043619,0.48763 -0.355469,0.48763 -0.355469,1.36263 0,0.893229 0.346354,1.380859 0.350912,0.483073 1.007161,0.483073 0.528646,0 0.829427,-0.300781 0.305339,-0.305339 0.382813,-0.911458 z"
                id="path6265" />
        <path
                d="m 83.770169,16.171872 q -0.364583,0.07292 -0.615234,0.07292 -0.537761,0 -0.783854,-0.186848 -0.246094,-0.191407 -0.300781,-0.483073 -0.05469,-0.291667 -0.05469,-0.811198 v -2.784504 h -0.597005 v -0.633463 h 0.597005 v -1.203125 l 0.820312,-0.4967446 v 1.6998696 h 0.820312 v 0.633463 h -0.820312 v 2.830077 q 0,0.364583 0.07292,0.519531 0.07747,0.150391 0.382812,0.150391 0.177735,0 0.364583,-0.03646 z"
                id="path6267" />
        <path
                d="M 85.296861,16.180986 H 84.476548 V 9.4999991 h 0.820313 z"
                id="path6269" />
        <path
                d="m 90.519514,11.345702 -1.850259,4.917316 q -0.0046,0.0091 -0.0091,0.0319 -0.264323,0.820312 -0.619791,1.330728 -0.350912,0.514974 -1.002604,0.514974 -0.21875,0 -0.533203,-0.09115 l -0.08203,-0.774739 q 0.236979,0.07292 0.464843,0.07292 0.455729,0 0.628906,-0.250651 0.177735,-0.250651 0.396484,-0.906901 l -1.836587,-4.844399 h 0.884114 l 1.139322,3.167316 q 0.100261,0.291667 0.214193,0.751953 h 0.01823 q 0.113932,-0.528646 0.291667,-1.007161 l 1.061848,-2.912108 z"
                id="path6271" />
        <path
                d="M 94.630193,16.180986 H 93.80988 v -4.835284 h 0.820313 z m 0,-5.7513 H 93.80988 V 9.4999991 h 0.820313 z"
                id="path6273" />
        <path
                d="m 99.834617,16.180986 h -0.824869 v -2.939452 q 0,-0.742838 -0.26888,-1.020833 -0.264323,-0.277994 -0.738281,-0.277994 -0.364584,0 -0.692708,0.177734 -0.323568,0.177734 -0.460287,0.501302 -0.136718,0.323567 -0.136718,0.916015 v 2.643228 h -0.820313 v -4.835284 h 0.738281 v 0.683593 h 0.01823 q 0.259765,-0.396484 0.63802,-0.592448 0.382813,-0.20052 0.884114,-0.20052 0.382813,0 0.756511,0.136718 0.373697,0.136719 0.583333,0.410156 0.214192,0.273438 0.26888,0.583334 0.05469,0.309895 0.05469,0.838541 z"
                id="path6275" />
        <path
                d="m 107.6367,11.345702 -1.85026,4.917316 q -0.005,0.0091 -0.009,0.0319 -0.26432,0.820312 -0.61979,1.330728 -0.35091,0.514974 -1.0026,0.514974 -0.21875,0 -0.5332,-0.09115 l -0.082,-0.774739 q 0.23698,0.07292 0.46485,0.07292 0.45573,0 0.6289,-0.250651 0.17774,-0.250651 0.39649,-0.906901 l -1.83659,-4.844399 h 0.88411 l 1.13933,3.167316 q 0.10026,0.291667 0.21419,0.751953 h 0.0182 q 0.11393,-0.528646 0.29167,-1.007161 l 1.06184,-2.912108 z"
                id="path6277" />
        <path
                d="m 110.30271,11.236327 q 0.97982,0 1.6224,0.63802 0.64713,0.638021 0.64713,1.813802 0,1.426432 -0.69726,2.018879 -0.69727,0.587891 -1.57227,0.587891 -0.91601,0 -1.59049,-0.60612 -0.67448,-0.60612 -0.67448,-1.923176 0,-1.276042 0.65169,-1.90039 0.65169,-0.628906 1.61328,-0.628906 z m 0,4.384113 q 0.70182,0 1.06641,-0.519531 0.36458,-0.519531 0.36458,-1.367187 0,-0.906901 -0.41471,-1.367187 -0.41016,-0.460287 -1.01628,-0.460287 -0.62435,0 -1.02539,0.469401 -0.40104,0.464844 -0.40104,1.389974 0,0.920572 0.4056,1.389973 0.41015,0.464844 1.02083,0.464844 z"
                id="path6279" />
        <path
                d="m 117.44398,16.180986 h -0.73372 v -0.710937 h -0.0228 q -0.55599,0.82487 -1.51758,0.82487 -0.50585,0 -0.9388,-0.232422 -0.42838,-0.236979 -0.57422,-0.647135 -0.14127,-0.414714 -0.14127,-1.070964 v -2.998696 h 0.82031 v 2.679686 q 0,0.642578 0.0593,0.920573 0.0638,0.277994 0.32356,0.460286 0.25977,0.177734 0.61979,0.177734 0.46485,0 0.875,-0.31901 0.41016,-0.323568 0.41016,-1.335286 v -2.583983 h 0.82031 z"
                id="path6281" />
        <path
                d="m 121.32224,11.496092 -0.28255,0.75651 q -0.30534,-0.177734 -0.59701,-0.177734 -0.46028,0 -0.69726,0.414713 -0.23698,0.410157 -0.23698,1.152995 v 2.53841 h -0.82031 v -4.835284 h 0.74739 v 0.729166 h 0.0182 q 0.39193,-0.838541 1.02539,-0.838541 0.41927,0 0.8431,0.259765 z"
                id="path6283" />
    </g>
</svg>
