<?xml version="1.0" encoding="UTF-8" standalone="no"?>
<svg
   width="140"
   height="44"
   viewBox="0 0 140 44"
   fill="none"
   version="1.1"
   id="svg331"
   sodipodi:docname="google-play.svg"
   inkscape:version="1.2.1 (9c6d41e4, 2022-07-14)"
   xmlns:inkscape="http://www.inkscape.org/namespaces/inkscape"
   xmlns:sodipodi="http://sodipodi.sourceforge.net/DTD/sodipodi-0.dtd"
   xmlns="http://www.w3.org/2000/svg"
   xmlns:svg="http://www.w3.org/2000/svg">
  <sodipodi:namedview
     id="namedview333"
     pagecolor="#ffffff"
     bordercolor="#999999"
     borderopacity="1"
     inkscape:showpageshadow="0"
     inkscape:pageopacity="0"
     inkscape:pagecheckerboard="0"
     inkscape:deskcolor="#d1d1d1"
     showgrid="false"
     inkscape:zoom="11"
     inkscape:cx="61.999999"
     inkscape:cy="17.681818"
     inkscape:window-width="1920"
     inkscape:window-height="607"
     inkscape:window-x="203"
     inkscape:window-y="25"
     inkscape:window-maximized="0"
     inkscape:current-layer="svg331" />
  <path
     d="m 10.61391,9.4094335 c -0.284562,0.29728 -0.452755,0.7584875 -0.452755,1.3557545 v 21.340863 c 0,0.59817 0.168193,1.058475 0.452755,1.355754 l 0.07237,0.06938 12.114985,-11.954709 v -0.1408 -0.140911 L 10.686281,9.339034 Z"
     fill="url(#paint0_linear_1338_2752)"
     id="path243"
     style="fill:url(#paint0_linear_1338_2752);stroke-width:1.12861" />
  <path
     d="M 26.839822,25.563636 22.802168,21.57749 v -0.140911 -0.140912 l 4.03867,-3.985244 0.09089,0.05122 4.784737,2.682514 c 1.367148,0.766159 1.367148,2.019586 0,2.78676 l -4.784737,2.682515 z"
     fill="url(#paint1_linear_1338_2752)"
     id="path245"
     style="fill:url(#paint1_linear_1338_2752);stroke-width:1.12861" />
  <path
     d="M 26.932177,25.511513 22.802619,21.435676 10.614316,33.461805 c 0.450801,0.47091 1.193988,0.528786 2.032071,0.05878 z"
     fill="url(#paint2_linear_1338_2752)"
     id="path247"
     style="fill:url(#paint2_linear_1338_2752);stroke-width:1.12861" />
  <path
     d="M 26.93229,17.359726 12.647403,9.3506545 C 11.809433,8.8806817 11.066212,8.9395397 10.615411,9.4094335 L 22.802732,21.435563 Z"
     fill="url(#paint3_linear_1338_2752)"
     id="path249"
     style="fill:url(#paint3_linear_1338_2752);stroke-width:1.12861" />
  <path
     opacity="0.2"
     d="m 26.84129,25.421821 -14.194,7.957851 c -0.79405,0.444849 -1.503942,0.415966 -1.959632,0.0106 l -0.07334,0.07243 0.07236,0.0695 c 0.455689,0.405249 1.165661,0.435146 1.959711,-0.0106 l 14.284774,-8.00907 z"
     fill="#000000"
     id="path251"
     style="stroke-width:1.12861" />
  <path
     opacity="0.12"
     d="m 10.61391,33.320894 c -0.284563,-0.29728 -0.452755,-0.758488 -0.452755,-1.355755 v 0.140799 c 0,0.59738 0.168192,1.058588 0.452755,1.355755 l 0.07334,-0.07232 z"
     fill="#000000"
     id="path253"
     style="stroke-width:1.12861" />
  <path
     opacity="0.12"
     d="m 31.716575,22.688087 -4.875737,2.733734 0.091,0.08969 4.784737,-2.682514 c 0.683517,-0.383023 1.024824,-0.887778 1.024824,-1.39242 -0.05769,0.456468 -0.405775,0.904136 -1.024824,1.251508 z"
     fill="#000000"
     id="path255"
     style="stroke-width:1.12861" />
  <path
     opacity="0.25"
     d="M 12.645935,9.4914535 31.715559,20.183151 c 0.619952,0.347372 0.967131,0.795041 1.024824,1.252412 0,-0.504642 -0.341307,-1.010301 -1.024824,-1.393323 L 12.645935,9.3506545 c -1.367069,-0.7662148 -2.48478,-0.1303068 -2.48478,1.4145335 v 0.141927 c 0,-1.5449529 1.118694,-2.1817973 2.48478,-1.4156615 z"
     fill="#ffffff"
     id="path257"
     style="stroke-width:1.12861" />
  <path
     d="m 68.967158,23.359477 c -2.6162,0 -4.748495,2.017217 -4.748495,4.798223 0,2.762954 2.132295,4.798222 4.748495,4.798222 2.616086,0 4.748381,-2.035268 4.748381,-4.798222 0,-2.781006 -2.132295,-4.798223 -4.748381,-4.798223 z m 0,7.706715 c -1.433762,0 -2.670619,-1.199274 -2.670619,-2.908492 0,-1.72727 1.236857,-2.908493 2.670619,-2.908493 1.433761,0 2.66949,1.181223 2.66949,2.908493 0,1.70809 -1.235729,2.908492 -2.66949,2.908492 z M 58.607134,23.359477 c -2.616199,0 -4.748494,2.017217 -4.748494,4.798223 0,2.762954 2.132295,4.798222 4.748494,4.798222 2.616087,0 4.748382,-2.035268 4.748382,-4.798222 0.0011,-2.781006 -2.132295,-4.798223 -4.748382,-4.798223 z m 0,7.706715 c -1.433761,0 -2.669603,-1.199274 -2.669603,-2.908492 0,-1.72727 1.236971,-2.908493 2.669603,-2.908493 1.433761,0 2.66949,1.181223 2.66949,2.908493 0.0011,1.70809 -1.235729,2.908492 -2.66949,2.908492 z M 46.284961,24.831774 v 2.035268 h 4.802914 c -0.1435,1.14512 -0.519468,1.981114 -1.093356,2.563264 -0.698535,0.708507 -1.792004,1.490348 -3.709558,1.490348 -2.95649,0 -5.267849,-2.417727 -5.267849,-5.416474 0,-2.998748 2.311359,-5.416474 5.267849,-5.416474 1.594988,0 2.759588,0.636303 3.619461,1.454247 l 1.415922,-1.436196 c -1.200164,-1.163171 -2.795151,-2.054446 -5.035383,-2.054446 -4.04996,0 -7.454677,3.343975 -7.454677,7.451741 0,4.107765 3.404717,7.451742 7.454677,7.451742 2.185699,0 3.835219,-0.726559 5.12548,-2.09055 1.325938,-1.344811 1.738601,-3.235669 1.738601,-4.762119 0,-0.472715 -0.03568,-0.909327 -0.107936,-1.272607 h -6.756145 z m 50.3965,1.580605 c -0.393807,-1.072916 -1.5951,-3.05403 -4.04996,-3.05403 -2.437022,0 -4.461494,1.945012 -4.461494,4.798222 0,2.689622 2.006633,4.798223 4.695091,4.798223 2.167859,0 3.422556,-1.344812 3.942025,-2.126652 l -1.612826,-1.090966 c -0.537307,0.799892 -1.272535,1.32676 -2.329199,1.32676 -1.057793,0 -1.80973,-0.490766 -2.293634,-1.454247 l 6.325756,-2.65352 z m -6.451417,1.599783 c -0.0534,-1.853628 1.415922,-2.799057 2.472586,-2.799057 0.824308,0 1.522842,0.417433 1.756439,1.017633 z m -5.143318,4.652684 h 2.078892 V 18.561255 h -2.078892 z m -3.404831,-8.233581 h -0.07113 C 81.1447,23.868294 80.249262,23.358349 79.12034,23.358349 c -2.365892,0 -4.533865,2.108601 -4.533865,4.816273 0,2.689622 2.167973,4.780172 4.533865,4.780172 1.128922,0 2.02436,-0.508818 2.490425,-1.090968 h 0.07113 v 0.690457 c 0,1.835577 -0.967695,2.817109 -2.527118,2.817109 -1.272535,0 -2.061166,-0.927379 -2.383731,-1.708091 l -1.80973,0.76379 c 0.519469,1.272606 1.899826,2.835159 4.193461,2.835159 2.437022,0 4.498188,-1.454246 4.498188,-4.997913 v -8.614913 h -1.97107 z m -2.382489,6.634927 c -1.433761,0 -2.634038,-1.217325 -2.634038,-2.890441 0,-1.690039 1.200277,-2.926544 2.634038,-2.926544 1.415923,0 2.52599,1.235377 2.52599,2.926544 0,1.671988 -1.110067,2.890441 -2.52599,2.890441 z M 106.41859,18.561255 h -4.97317 v 14.103591 h 2.0745 v -5.34314 h 2.89754 c 2.30053,0 4.56198,-1.688912 4.56198,-4.379661 0,-2.69075 -2.26032,-4.38079 -4.56085,-4.38079 z m 0.0534,6.797388 h -2.95208 v -4.834325 h 2.95208 c 1.55164,0 2.43228,1.303068 2.43228,2.417727 0,1.092095 -0.88064,2.416598 -2.43228,2.416598 z m 12.8273,-2.025114 c -1.50274,0 -3.05856,0.671277 -3.70323,2.159369 l 1.84372,0.780713 c 0.3929,-0.780713 1.12677,-1.034557 1.89564,-1.034557 1.07371,0 2.16436,0.653226 2.18243,1.814141 v 0.145537 c -0.37597,-0.217742 -1.18098,-0.544919 -2.16437,-0.544919 -1.98483,0 -4.00807,1.106761 -4.00807,3.175874 0,1.887474 1.6292,3.102542 3.45259,3.102542 1.39661,0 2.16548,-0.635174 2.64759,-1.378656 h 0.0711 v 1.08871 h 2.00403 v -5.407449 c 0,-2.504597 -1.84258,-3.901305 -4.22146,-3.901305 z m -0.25177,7.729278 c -0.67968,0 -1.62807,-0.345228 -1.62807,-1.197017 0,-1.088711 1.18097,-1.506144 2.20049,-1.506144 0.91113,0 1.34129,0.199692 1.89565,0.471587 -0.16032,1.306452 -1.26904,2.231574 -2.46807,2.231574 z m 11.77132,-7.421281 -2.37888,6.114829 h -0.0711 l -2.46807,-6.114829 h -2.23549 l 3.70211,8.546094 -2.1113,4.754222 h 2.16549 l 5.70727,-13.300316 z m -18.69457,9.02332 h 2.0763 V 18.561255 h -2.0763 z"
     fill="#000000"
     id="path259"
     style="stroke-width:1.12861" />
  <path
     fill-rule="evenodd"
     clip-rule="evenodd"
     d="m 75.101429,12.663042 c -0.656308,0.684815 -1.471584,1.02553 -2.44707,1.02553 -0.975485,0 -1.790875,-0.341844 -2.446054,-1.02553 -0.656195,-0.683688 -0.983276,-1.520811 -0.983276,-2.510239 0,-0.9894292 0.327081,-1.8265399 0.983276,-2.5102273 0.655179,-0.6848156 1.470569,-1.0266594 2.446054,-1.0266594 0.969841,0 1.784101,0.3441002 2.442554,1.0311722 0.658566,0.6870719 0.987793,1.5219263 0.987793,2.5057145 0,0.990557 -0.328098,1.827679 -0.983277,2.510239 z m -4.260186,-0.566355 c 0.493839,0.507688 1.097872,0.760404 1.813116,0.760404 0.715131,0 1.319165,-0.253844 1.813004,-0.760404 0.49384,-0.507689 0.741889,-1.155274 0.741889,-1.942756 0,-0.7874818 -0.248049,-1.4361835 -0.741889,-1.942744 -0.49271,-0.5076887 -1.097873,-0.7604048 -1.813004,-0.7604048 -0.715244,0 -1.319277,0.2538444 -1.813116,0.7604048 -0.492711,0.5076886 -0.740761,1.1552622 -0.740761,1.942744 0,0.787482 0.24805,1.435067 0.740761,1.942756 z"
     fill="#000000"
     id="path261"
     style="stroke-width:1.12861" />
  <path
     d="m 45.968945,10.428083 c 0,0.945429 -0.275824,1.697936 -0.828712,2.259779 -0.627291,0.667893 -1.445954,1.001839 -2.451473,1.001839 -0.963293,0 -1.783085,-0.33846 -2.455989,-1.015378 -0.674034,-0.678046 -1.01105,-1.517424 -1.01105,-2.519264 0,-1.0029672 0.337016,-1.8423343 1.01105,-2.5192525 0.672904,-0.6780464 1.492696,-1.0165056 2.455989,-1.0165056 0.47826,0 0.935406,0.094769 1.369181,0.2831775 0.434904,0.1895371 0.783098,0.441125 1.043341,0.755892 L 44.5152,8.2540585 C 44.073522,7.7181648 43.465084,7.4507822 42.687631,7.4507822 c -0.702937,0 -1.310357,0.2504598 -1.823053,0.7513793 -0.511678,0.5009194 -0.767517,1.1507494 -0.767517,1.9517695 0,0.80102 0.255839,1.450862 0.768646,1.952909 0.512696,0.500919 1.120003,0.751379 1.823053,0.751379 0.745276,0 1.367036,-0.251588 1.86415,-0.755891 0.322677,-0.328306 0.509533,-0.785226 0.559549,-1.37076 H 42.68876 V 9.9170094 h 3.233443 c 0.03229,0.1771266 0.04674,0.3474846 0.04674,0.5110736 z"
     fill="#000000"
     id="path263"
     style="stroke-width:1.12861" />
  <path
     d="m 51.096682,7.6008437 h -3.038796 v 2.145808 h 2.740731 v 0.8134303 h -2.740731 v 2.145831 h 3.038796 v 0.832609 H 47.200271 V 6.7693624 h 3.896411 z"
     fill="#000000"
     id="path265"
     style="stroke-width:1.12861" />
  <path
     d="m 53.854124,13.538522 h 0.857502 V 7.6008437 h 1.864262 V 6.7693624 h -4.586027 v 0.8314813 h 1.864263 z"
     fill="#000000"
     id="path267"
     style="stroke-width:1.12861" />
  <path
     d="M 59.895024,13.538522 V 6.7693624 h 0.857615 v 6.7691596 z"
     fill="#000000"
     id="path269"
     style="stroke-width:1.12861" />
  <path
     d="m 63.696936,13.538522 h 0.857615 V 7.6008437 H 66.4187 V 6.7693624 h -4.586026 v 0.8314813 h 1.864262 z"
     fill="#000000"
     id="path271"
     style="stroke-width:1.12861" />
  <path
     d="m 77.288143,6.7693624 v 6.7691596 h 0.85547 V 9.3213214 l -0.03681,-1.304173 h 0.03681 l 3.39354,5.5213736 h 0.895438 V 6.7693624 h -0.857615 v 3.9622056 l 0.03681,1.304196 h -0.03681 L 78.331485,6.7693624 Z"
     fill="#000000"
     id="path273"
     style="stroke-width:1.12861" />
  <path
     fill-rule="evenodd"
     clip-rule="evenodd"
     d="m 75.101429,12.663042 c -0.656308,0.684815 -1.471584,1.02553 -2.44707,1.02553 -0.975485,0 -1.790875,-0.341844 -2.446054,-1.02553 -0.656195,-0.683688 -0.983276,-1.520811 -0.983276,-2.510239 0,-0.9894292 0.327081,-1.8265399 0.983276,-2.5102273 0.655179,-0.6848156 1.470569,-1.0266594 2.446054,-1.0266594 0.969841,0 1.784101,0.3441002 2.442554,1.0311722 0.658566,0.6870719 0.987793,1.5219263 0.987793,2.5057145 0,0.990557 -0.328098,1.827679 -0.983277,2.510239 z m -4.260186,-0.566355 c 0.493839,0.507688 1.097872,0.760404 1.813116,0.760404 0.715131,0 1.319165,-0.253844 1.813004,-0.760404 0.49384,-0.507689 0.741889,-1.155274 0.741889,-1.942756 0,-0.7874818 -0.248049,-1.4361835 -0.741889,-1.942744 -0.49271,-0.5076887 -1.097873,-0.7604048 -1.813004,-0.7604048 -0.715244,0 -1.319277,0.2538444 -1.813116,0.7604048 -0.492711,0.5076886 -0.740761,1.1552622 -0.740761,1.942744 0,0.787482 0.24805,1.435067 0.740761,1.942756 z"
     stroke="#000000"
     stroke-width="0.225723"
     stroke-miterlimit="10"
     id="path275" />
  <path
     d="m 45.968945,10.428083 c 0,0.945429 -0.275824,1.697936 -0.828712,2.259779 -0.627291,0.667893 -1.445954,1.001839 -2.451473,1.001839 -0.963293,0 -1.783085,-0.33846 -2.455989,-1.015378 -0.674034,-0.678046 -1.01105,-1.517424 -1.01105,-2.519264 0,-1.0029672 0.337016,-1.8423343 1.01105,-2.5192525 0.672904,-0.6780464 1.492696,-1.0165056 2.455989,-1.0165056 0.47826,0 0.935406,0.094769 1.369181,0.2831775 0.434904,0.1895371 0.783098,0.441125 1.043341,0.755892 L 44.5152,8.2540585 C 44.073522,7.7181648 43.465084,7.4507822 42.687631,7.4507822 c -0.702937,0 -1.310357,0.2504598 -1.823053,0.7513793 -0.511678,0.5009194 -0.767517,1.1507494 -0.767517,1.9517695 0,0.80102 0.255839,1.450862 0.768646,1.952909 0.512696,0.500919 1.120003,0.751379 1.823053,0.751379 0.745276,0 1.367036,-0.251588 1.86415,-0.755891 0.322677,-0.328306 0.509533,-0.785226 0.559549,-1.37076 H 42.68876 V 9.9170094 h 3.233443 c 0.03229,0.1771266 0.04674,0.3474846 0.04674,0.5110736 z"
     stroke="#000000"
     stroke-width="0.225723"
     stroke-miterlimit="10"
     id="path277" />
  <path
     d="m 51.096682,7.6008437 h -3.038796 v 2.145808 h 2.740731 v 0.8134303 h -2.740731 v 2.145831 h 3.038796 v 0.832609 H 47.200271 V 6.7693624 h 3.896411 z"
     stroke="#000000"
     stroke-width="0.225723"
     stroke-miterlimit="10"
     id="path279" />
  <path
     d="m 53.854124,13.538522 h 0.857502 V 7.6008437 h 1.864262 V 6.7693624 h -4.586027 v 0.8314813 h 1.864263 z"
     stroke="#000000"
     stroke-width="0.225723"
     stroke-miterlimit="10"
     id="path281" />
  <path
     d="M 59.895024,13.538522 V 6.7693624 h 0.857615 v 6.7691596 z"
     stroke="#000000"
     stroke-width="0.225723"
     stroke-miterlimit="10"
     id="path283" />
  <path
     d="m 63.696936,13.538522 h 0.857615 V 7.6008437 H 66.4187 V 6.7693624 h -4.586026 v 0.8314813 h 1.864262 z"
     stroke="#000000"
     stroke-width="0.225723"
     stroke-miterlimit="10"
     id="path285" />
  <path
     d="m 77.288143,6.7693624 v 6.7691596 h 0.85547 V 9.3213214 l -0.03681,-1.304173 h 0.03681 l 3.39354,5.5213736 h 0.895438 V 6.7693624 h -0.857615 v 3.9622056 l 0.03681,1.304196 h -0.03681 L 78.331485,6.7693624 Z"
     stroke="#000000"
     stroke-width="0.225723"
     stroke-miterlimit="10"
     id="path287" />
  <path
     d="M 132.3518,0.42494899 H 7.6484713 c -3.9894439,0 -7.22352231,3.40979651 -7.22352231,7.61599281 V 35.959058 c 0,4.206163 3.23407841,7.615993 7.22352231,7.615993 H 132.3518 c 3.98932,0 7.22325,-3.40983 7.22325,-7.615993 V 8.0409418 c 0,-4.2061963 -3.23393,-7.61599281 -7.22325,-7.61599281 z"
     stroke="#000000"
     stroke-width="0.849898"
     stroke-miterlimit="10"
     id="path289" />
  <defs
     id="defs329">
    <linearGradient
       id="paint0_linear_1338_2752"
       x1="19.244101"
       y1="11.3424"
       x2="4.8912601"
       y2="25.876801"
       gradientUnits="userSpaceOnUse"
       gradientTransform="matrix(1.1290348,0,0,1.128197,-1.5802254e-4,-2.2562366)">
      <stop
         stop-color="#00A0FF"
         id="stop291" />
      <stop
         offset="0.0066"
         stop-color="#00A1FF"
         id="stop293" />
      <stop
         offset="0.2601"
         stop-color="#00BEFF"
         id="stop295" />
      <stop
         offset="0.5122"
         stop-color="#00D2FF"
         id="stop297" />
      <stop
         offset="0.7604"
         stop-color="#00DFFF"
         id="stop299" />
      <stop
         offset="1"
         stop-color="#00E3FF"
         id="stop301" />
    </linearGradient>
    <linearGradient
       id="paint1_linear_1338_2752"
       x1="29.667601"
       y1="21.0002"
       x2="8.7101603"
       y2="21.0002"
       gradientUnits="userSpaceOnUse"
       gradientTransform="matrix(1.1290348,0,0,1.128197,-1.5802254e-4,-2.2562366)">
      <stop
         stop-color="#FFE000"
         id="stop304" />
      <stop
         offset="0.4087"
         stop-color="#FFBD00"
         id="stop306" />
      <stop
         offset="0.7754"
         stop-color="#FFA500"
         id="stop308" />
      <stop
         offset="1"
         stop-color="#FF9C00"
         id="stop310" />
    </linearGradient>
    <linearGradient
       id="paint2_linear_1338_2752"
       x1="21.866501"
       y1="22.962799"
       x2="2.4028299"
       y2="42.672699"
       gradientUnits="userSpaceOnUse"
       gradientTransform="matrix(1.1290348,0,0,1.128197,-1.5802254e-4,-2.2562366)">
      <stop
         stop-color="#FF3A44"
         id="stop313" />
      <stop
         offset="1"
         stop-color="#C31162"
         id="stop315" />
    </linearGradient>
    <linearGradient
       id="paint3_linear_1338_2752"
       x1="6.6837702"
       y1="4.0436702"
       x2="15.3752"
       y2="12.8449"
       gradientUnits="userSpaceOnUse"
       gradientTransform="matrix(1.1290348,0,0,1.128197,-1.5802254e-4,-2.2562366)">
      <stop
         stop-color="#32A071"
         id="stop318" />
      <stop
         offset="0.0685"
         stop-color="#2DA771"
         id="stop320" />
      <stop
         offset="0.4762"
         stop-color="#15CF74"
         id="stop322" />
      <stop
         offset="0.8009"
         stop-color="#06E775"
         id="stop324" />
      <stop
         offset="1"
         stop-color="#00F076"
         id="stop326" />
    </linearGradient>
  </defs>
</svg>
